#N canvas 838 -1440 1280 1384 12;
#X msg 76 591 connect 127.0.0.1 8888;
#X obj 67 678 netsend -u -b;
#X msg 67 567 disconnect;
#X obj 60 402 oscformat feed;
#X obj 121 634 list prepend send;
#X obj 121 656 list trim;
#X obj 303 335 oscformat query;
#X obj 268 113 oscformat reset;
#X obj 268 95 bng 15 250 50 0 empty empty empty 17 7 0 10 #fcfcfc #000000
#000000;
#X obj 60 425 s oscsend;
#X obj 121 613 r oscsend;
#X obj 303 356 s oscsend;
#X obj 268 135 s oscsend;
#X msg 287 567 listen 0;
#X obj 287 614 oscparse;
#X obj 287 590 netreceive -u -b;
#X floatatom 287 688 5 0 0 0 - - - 0;
#X obj 287 661 route query_return;
#X text 65 499 OSC send;
#X text 284 499 OSC receive;
#X floatatom 59 226 5 0 0 0 - - - 0;
#X text 56 188 feed;
#X obj 513 583 osc~;
#X obj 513 634 dac~ 1 2;
#X obj 513 608 *~;
#X obj 599 514 loadbang;
#X msg 599 538 0.8;
#X floatatom 599 562 5 0 0 0 - - - 0;
#X obj 554 562 r osc;
#X obj 513 513 loadbang;
#X floatatom 513 561 5 0 0 0 - - - 0;
#X msg 513 537 200;
#X obj 68 382 s osc;
#X obj 303 296 spigot;
#X obj 147 97 tgl 15 0 empty empty empty 17 7 0 10 #fcfcfc #000000
#000000 0 1;
#X obj 303 317 bng 15 250 50 0 empty empty empty 17 7 0 10 #fcfcfc
#000000 #000000;
#X text 512 490 synth;
#X obj 353 275 == 0;
#X obj 353 296 tgl 15 0 empty empty empty 17 7 0 10 #fcfcfc #000000
#000000 0 1;
#X obj 60 358 spigot;
#X obj 110 359 tgl 15 0 empty empty empty 17 7 0 10 #fcfcfc #000000
#000000 0 1;
#X text 301 188 query;
#X text 143 76 feed/query;
#X msg 356 567 listen 7777;
#X obj 287 637 route list;
#X obj 59 269 speedlimit;
#X floatatom 59 292 5 0 0 0 - - - 0;
#X obj 519 264 loadbang;
#X floatatom 519 221 5 0 0 0 - - - 0;
#X obj 519 329 s tick;
#X obj 303 275 r tick;
#X obj 519 242 s rate;
#X obj 126 228 r rate;
#X text 516 182 control rate;
#X text 265 74 reset;
#X text 58 18 iipyper predictor.py;
#X obj 147 115 s feedquery;
#X obj 105 336 r feedquery;
#X obj 353 255 r feedquery;
#X obj 526 289 bng 15 250 50 0 empty empty empty 17 7 0 10 #fcfcfc
#000000 #000000;
#X obj 522 203 hsl 128 15 10 200 0 0 empty empty empty -2 -8 0 10 #fcfcfc
#000000 #000000 0 1;
#X obj 197 207 r tick;
#X floatatom 126 249 5 0 0 0 - - - 0;
#X obj 61 115 s onoff;
#X obj 61 95 tgl 15 0 empty empty empty 17 7 0 10 #fcfcfc #000000 #000000
0 1;
#X text 56 74 on/off;
#X obj 329 687 s query_return;
#X obj 287 711 print query_return;
#X obj 347 189 r query_return;
#X floatatom 303 231 5 0 0 0 - - - 0;
#X obj 67 521 r onoff;
#X obj 76 613 print;
#X obj 287 521 r onoff;
#X obj 67 544 sel 0 1;
#X obj 287 544 sel 0 1;
#X obj 411 590 print;
#X floatatom 166 402 5 0 0 0 - - - 0;
#X obj 303 253 s osc;
#X obj 111 382 i;
#X obj 59 335 sel 0;
#X obj 59 313 expr if($i1 == $i2 \, 0 \, $i1);
#X obj 62 208 hsl 128 15 10 1000 0 0 empty empty empty -2 -8 0 10 #fcfcfc
#000000 #000000 0 1;
#X obj 306 211 hsl 128 15 10 1000 0 0 empty empty empty -2 -8 0 10
#fcfcfc #000000 #000000 0 1;
#X obj 519 307 metro 100;
#X obj 579 286 r rate;
#X text 420 26 turn on/off to connect/disconnect from iipyper;
#X text 420 46 toggle between feed and query modes;
#X text 419 66 control rate sets the speed of feed and query;
#X text 421 90 feed mode will send at a constant speed and ignore same
values, f 63;
#X connect 0 0 1 0;
#X connect 0 0 71 0;
#X connect 2 0 1 0;
#X connect 2 0 71 0;
#X connect 3 0 9 0;
#X connect 4 0 5 0;
#X connect 5 0 1 0;
#X connect 6 0 11 0;
#X connect 7 0 12 0;
#X connect 8 0 7 0;
#X connect 10 0 4 0;
#X connect 13 0 15 0;
#X connect 13 0 75 0;
#X connect 14 0 44 0;
#X connect 15 0 14 0;
#X connect 16 0 67 0;
#X connect 17 0 16 0;
#X connect 17 0 66 0;
#X connect 20 0 45 0;
#X connect 22 0 24 0;
#X connect 24 0 23 0;
#X connect 24 0 23 1;
#X connect 25 0 26 0;
#X connect 26 0 27 0;
#X connect 27 0 24 1;
#X connect 28 0 22 0;
#X connect 29 0 31 0;
#X connect 30 0 22 0;
#X connect 31 0 30 0;
#X connect 33 0 35 0;
#X connect 34 0 56 0;
#X connect 35 0 6 0;
#X connect 37 0 38 0;
#X connect 37 0 33 1;
#X connect 39 0 32 0;
#X connect 39 0 3 0;
#X connect 39 0 76 0;
#X connect 39 0 78 0;
#X connect 43 0 15 0;
#X connect 43 0 75 0;
#X connect 44 0 17 0;
#X connect 45 0 46 0;
#X connect 46 0 80 0;
#X connect 47 0 83 0;
#X connect 48 0 51 0;
#X connect 50 0 33 0;
#X connect 52 0 62 0;
#X connect 57 0 39 1;
#X connect 57 0 40 0;
#X connect 58 0 37 0;
#X connect 59 0 83 0;
#X connect 60 0 48 0;
#X connect 61 0 20 0;
#X connect 62 0 45 1;
#X connect 64 0 63 0;
#X connect 68 0 82 0;
#X connect 69 0 77 0;
#X connect 70 0 73 0;
#X connect 72 0 74 0;
#X connect 73 0 2 0;
#X connect 73 1 0 0;
#X connect 74 0 13 0;
#X connect 74 1 43 0;
#X connect 78 0 80 1;
#X connect 79 1 39 0;
#X connect 80 0 79 0;
#X connect 81 0 20 0;
#X connect 82 0 69 0;
#X connect 83 0 49 0;
#X connect 84 0 83 1;
